<svg xmlns="http://www.w3.org/2000/svg" version="1.1" viewBox="-5.0 -10.0 110.0 135.0">
 <path d="m81 59.375-4.375-1.543c-0.875-0.29297-1.543-0.95703-1.875-1.832l-1.793-4.582c-0.54297-1.332-1.75-2-2.957-2s-2.418 0.66797-2.957 2l-1.793 4.582c-0.33203 0.875-1.043 1.543-1.875 1.832l-4.375 1.543c-2.793 1-2.793 4.957 0 5.957l4.375 1.543c0.875 0.29297 1.543 0.95703 1.875 1.832l1.793 4.582c0.54297 1.332 1.75 2 2.957 2s2.418-0.66797 2.957-2l1.793-4.582c0.33203-0.875 1.043-1.543 1.875-1.832l4.375-1.543c2.793-1 2.793-4.957 0-5.957z"/>
 <path d="m57.5 45-3-1.043c-0.58203-0.20703-1.082-0.66797-1.293-1.25l-1.207-3.125c-0.375-0.91797-1.168-1.375-2-1.375s-1.668 0.45703-2 1.375l-1.207 3.125c-0.20703 0.58203-0.70703 1.043-1.293 1.25l-3 1.043c-1.918 0.66797-1.918 3.375 0 4.082l3 1.043c0.58203 0.20703 1.082 0.66797 1.293 1.25l1.207 3.125c0.375 0.91797 1.168 1.375 2 1.375s1.668-0.45703 2-1.375l1.207-3.125c0.20703-0.58203 0.70703-1.043 1.293-1.25l3-1.043c1.918-0.66797 1.918-3.375 0-4.082z"/>
 <path d="m20 42.918c-1.707 0-3.125 1.418-3.125 3.125v10c0 1.707 1.418 3.125 3.125 3.125s3.125-1.418 3.125-3.125v-10c0-1.707-1.418-3.125-3.125-3.125z"/>
 <path d="m35 32.918c-1.707 0-3.125 1.418-3.125 3.125v30c0 1.707 1.418 3.125 3.125 3.125s3.125-1.418 3.125-3.125v-30c0-1.707-1.418-3.125-3.125-3.125z"/>
 <path d="m65 32.918c1.707 0 3.125 1.418 3.125 3.125v6.293c0 1.707-1.418 3.125-3.125 3.125s-3.125-1.418-3.125-3.125v-6.293c0-1.707 1.418-3.125 3.125-3.125z"/>
 <path d="m50 59.207c-1.707 0-3.125 1.418-3.125 3.125v13.707c0 1.707 1.418 3.125 3.125 3.125s3.125-1.418 3.125-3.125v-13.707c0-1.707-1.418-3.125-3.125-3.125z"/>
 <path d="m50 34.582c1.707 0 3.125-1.418 3.125-3.125v-5.375c0-1.707-1.418-3.125-3.125-3.125s-3.125 1.418-3.125 3.125v5.375c0 1.707 1.418 3.125 3.125 3.125z"/>
 <path d="m80 42.918c-1.707 0-3.125 1.418-3.125 3.125v1c0 1.707 1.418 3.125 3.125 3.125s3.125-1.418 3.125-3.125v-1c0-1.707-1.418-3.125-3.125-3.125z"/>
</svg>
